M48
; DRILL file {KiCad (5.1.0)-1} date 25.03.2021 12:05:38
; FORMAT={-:-/ absolute / metric / decimal}
; #@! TF.CreationDate,2021-03-25T12:05:38+01:00
; #@! TF.GenerationSoftware,Kicad,Pcbnew,(5.1.0)-1
; #@! TF.FileFunction,Plated,1,2,PTH
FMAT,2
METRIC
T1C1.000
%
G90
G05
T1
X130.81Y-48.26
X130.81Y-50.8
X133.35Y-48.26
X133.35Y-50.8
X135.89Y-48.26
X135.89Y-50.8
X138.43Y-48.26
X138.43Y-50.8
X140.97Y-48.26
X140.97Y-50.8
X143.51Y-48.26
X143.51Y-50.8
X146.05Y-48.26
X146.05Y-50.8
X148.59Y-48.26
X148.59Y-50.8
X151.13Y-48.26
X151.13Y-50.8
X153.67Y-48.26
X153.67Y-50.8
X156.21Y-48.26
X156.21Y-50.8
X158.75Y-48.26
X158.75Y-50.8
X161.29Y-48.26
X161.29Y-50.8
X163.83Y-48.26
X163.83Y-50.8
X166.37Y-48.26
X166.37Y-50.8
X168.91Y-48.26
X168.91Y-50.8
X171.45Y-48.26
X171.45Y-50.8
X173.99Y-48.26
X173.99Y-50.8
X176.53Y-48.26
X176.53Y-50.8
X179.07Y-48.26
X179.07Y-50.8
X139.065Y-62.865
X139.065Y-65.405
T0
M30
